# xmcd CD Database Entry
#
# Track frame offsets:
# 183
# 24928
# 49395
# 69015
# 98623
# 134633
# 151450
#
# Disc length: 2758 seconds
#
# Revision: 1
# Processed by: cddbd v1.4PL0 Copyright (c) Steve Scherf et al.
# Submitted via: tcd 2.0b
#
DISCID=530ac407
DTITLE=Eric Clapton - Santa Monica 1978
DYEAR=1900
DGENRE=
TTITLE0=Knockin' on heaven's door
TTITLE1=Lay down Sally
TTITLE2=Next time to see her
TTITLE3=Cocaine
TTITLE4=Badge
TTITLE5=Sign language
TTITLE6=Layla
EXTD=
EXTT0=
EXTT1=
EXTT2=
EXTT3=
EXTT4=
EXTT5=
EXTT6=
PLAYORDER=
